<?xml version="1.0" encoding="utf-8"?>
<!-- Generator: Adobe Illustrator 19.1.0, SVG Export Plug-In . SVG Version: 6.00 Build 0)  -->
<svg version="1.1" id="レイヤー_1" xmlns="http://www.w3.org/2000/svg" xmlns:xlink="http://www.w3.org/1999/xlink" x="0px"
	 y="0px" width="30.6px" height="58px" viewBox="0 0 30.6 58" style="enable-background:new 0 0 30.6 58;" xml:space="preserve">
<style type="text/css">
	.st0{fill:#040000;}
	.st1{fill:#FFFFFF;}
</style>
<g>
	<g>
		<g>
			<g>
				<g>
					<polygon class="st0" points="0.7,29 26.4,0.7 29.9,4.6 7.8,29 29.9,53.3 26.4,57.2 					"/>
					<path class="st1" d="M26.4,1.5l2.9,3.2L7.1,29l22.1,24.3l-2.9,3.2L1.4,29L26.4,1.5 M26.4,0l-0.7,0.8l-25,27.5L0,29l0.6,0.7
						l25,27.5l0.7,0.8l0.7-0.8L30,54l0.6-0.7L30,52.7L8.4,29L30,5.3l0.6-0.7L30,4l-2.9-3.2L26.4,0L26.4,0z"/>
				</g>
			</g>
		</g>
	</g>
	<g>
		<g>
			<g>
				<g>
					<polygon class="st0" points="29.2,4.6 26.4,1.5 1.4,29 26.4,56.5 29.2,53.3 7.1,29 					"/>
				</g>
			</g>
		</g>
	</g>
</g>
</svg>
